<?xml version="1.0" encoding="utf-8"?>
<!-- Generator: Adobe Illustrator 22.0.1, SVG Export Plug-In . SVG Version: 6.00 Build 0)  -->
<svg version="1.1" id="Capa_1" xmlns="http://www.w3.org/2000/svg" xmlns:xlink="http://www.w3.org/1999/xlink" x="0px" y="0px"
	 viewBox="0 0 220 92" style="enable-background:new 0 0 220 92;" xml:space="preserve">
<style type="text/css">
	.st0{opacity:0.5;enable-background:new    ;}
	.st1{fill:#FFFFFF;}
	.st2{fill:none;stroke:#FFFFFF;stroke-width:4;}
	.st3{enable-background:new    ;}
</style>
<title>Group</title>
<desc>Created with Sketch.</desc>
<g id="Page-1">
	<g id="Desktop-HD" transform="translate(-609.000000, -709.000000)">
		<g id="Group" transform="translate(611.000000, 711.000000)">
			<path id="Combined-Shape" class="st0" d="M75.2,13h113.3c16.3,0,29.5,13.2,29.5,29.5S204.8,72,188.5,72H77.9
				C69.9,81.8,57.7,88,44,88C19.7,88,0,68.3,0,44S19.7,0,44,0C56.2,0,67.3,5,75.2,13z"/>
			<polygon id="Triangle" class="st1" points="71,44 29,65 29,23 			"/>
			<circle id="Oval" class="st2" cx="44" cy="44" r="44"/>
			<g class="st3">
				<path class="st1" d="M116,54.2c-1.3-0.1-2.5-0.4-3.6-1c-1.2-0.7-2.1-1.7-2.5-2.8l0.7-0.3c0.4,1,1.1,1.9,2.2,2.5
					c1,0.5,2.1,0.8,3.2,0.9c1.7,0.1,3.2-0.4,4.4-1.3c1.1-0.9,1.7-1.9,1.7-3.2c0.1-2.3-1.8-4-5.8-5.1c-2.1-0.6-3.8-1.4-4.8-2.4
					c-1.1-1-1.6-2.1-1.5-3.4c0.1-1.9,0.9-3.3,2.4-4.2c1.2-0.8,2.8-1.1,4.6-1c2.1,0.1,3.8,0.8,5.1,2.2l-0.6,0.5
					c-1.1-1.2-2.6-1.9-4.6-1.9c-1.6-0.1-3,0.2-4.1,0.9c-1.3,0.8-2,2-2,3.6c-0.1,2.2,1.8,3.9,5.8,5c2.1,0.6,3.8,1.4,4.8,2.4
					s1.6,2.2,1.5,3.5c-0.1,1.5-0.7,2.7-2,3.8c-1.2,1-2.8,1.5-4.5,1.5C116.2,54.2,116.1,54.2,116,54.2z"/>
				<path class="st1" d="M137.6,33v0.8h-6.5V54h-0.8V33.8h-6.5V33H137.6z"/>
				<path class="st1" d="M148.8,33v21H148v-5.6h-9.5l-3.5,5.6H134l3.9-6.2v-0.1h0.1l9.3-14.7H148.8z M138.9,47.6h9V33.4L138.9,47.6z
					"/>
				<path class="st1" d="M164,54l-5.2-10.1h-6.4V54h-0.8V33h7.4c1.5,0,2.8,0.5,3.9,1.6s1.6,2.4,1.6,3.9c0,1.4-0.5,2.6-1.4,3.7
					c-0.9,1-2.1,1.6-3.5,1.8l5.2,10.1H164z M152.4,43.1h6.6c1.3,0,2.4-0.5,3.3-1.4c0.9-0.9,1.4-2,1.4-3.3s-0.5-2.4-1.4-3.3
					s-2-1.4-3.3-1.4h-6.6V43.1z"/>
				<path class="st1" d="M178.2,33v0.8h-6.5V54H171V33.8h-6.5V33H178.2z"/>
			</g>
		</g>
	</g>
</g>
</svg>
