<?xml version="1.0" encoding="UTF-8"?>
<svg width="628px" height="245px" viewBox="0 0 628 245" version="1.1" xmlns="http://www.w3.org/2000/svg" xmlns:xlink="http://www.w3.org/1999/xlink">
    <!-- Generator: Sketch 52.2 (67145) - http://www.bohemiancoding.com/sketch -->
    <title>Group 2</title>
    <desc>Created with Sketch.</desc>
    <defs>
        <path d="M158.421248,97.6289209 L185.582836,97.6289209 C186.310382,97.6289209 186.67415,97.9522699 186.67415,98.5989776 C186.67415,98.8953853 186.579839,99.2187344 186.391216,99.5690344 L176.286459,117.030055 C175.990051,117.568978 175.53871,118.027056 174.932421,118.404302 C174.326133,118.781548 173.767009,118.970169 173.255032,118.970169 L146.093444,118.970169 C145.338952,118.970169 144.961711,118.64682 144.961711,118.000112 C144.961711,117.703704 145.056021,117.380355 145.244644,117.030055 L155.349402,99.5690344 C155.645809,99.0301113 156.097151,98.5720335 156.703439,98.1947874 C157.309728,97.8175412 157.882325,97.6289209 158.421248,97.6289209 Z M163.837398,115.089942 L171.67869,101.509148 C171.867313,101.158848 171.961623,100.835499 171.961623,100.539091 C171.961623,99.8923834 171.597855,99.5690344 170.870309,99.5690344 C170.331386,99.5690344 169.765525,99.7576546 169.17271,100.134901 C168.579894,100.512147 168.121817,100.970225 167.798463,101.509148 L159.957171,115.089942 C159.768548,115.440242 159.674238,115.763591 159.674238,116.059998 C159.674238,116.706706 160.038005,117.030055 160.765552,117.030055 C161.304475,117.030055 161.877072,116.841435 162.48336,116.464189 C163.089649,116.086943 163.54099,115.628865 163.837398,115.089942 Z M211.168081,87.9283538 C210.629158,87.9283538 210.056561,88.1169741 209.450273,88.4942203 C208.843984,88.8714664 208.392643,89.3295442 208.096235,89.8684673 L206.964502,91.8085807 C206.775879,92.1588807 206.681569,92.4822297 206.681569,92.7786374 C206.681569,93.4253451 207.045337,93.7486941 207.772883,93.7486941 C208.742945,93.7486941 209.227968,93.977733 209.227968,94.4358176 C209.227968,94.8400099 208.877673,95.1633589 208.177073,95.4058743 C207.63815,95.5944974 207.139654,95.6888075 206.681569,95.6888075 C206.142646,95.6888075 205.570049,95.8774278 204.96376,96.2546739 C204.357472,96.6319201 203.906131,97.0899979 203.609723,97.6289209 L183.763979,132.025515 C183.359787,132.726115 182.928655,133.07641 182.47057,133.07641 C182.228055,133.07641 182.025962,132.955154 181.864285,132.712639 L176.528973,123.577938 C176.367296,123.335423 176.286459,122.998601 176.286459,122.567462 C176.286459,121.81297 176.488552,121.085435 176.892744,120.384835 L195.647174,87.9283538 C195.943582,87.3894308 196.388187,86.931353 196.981002,86.5541068 C197.573818,86.1768607 198.139678,85.9882404 198.678601,85.9882404 L212.259395,85.9882404 C213.229457,85.9882404 213.71448,86.2172793 213.71448,86.6753639 C213.71448,87.0795562 213.364186,87.4029052 212.663586,87.6454206 C212.124662,87.8340437 211.626166,87.9283538 211.168081,87.9283538 Z" id="path-1"></path>
        <path d="M228.669521,99.6498724 L208.823778,134.086886 C208.419585,134.787486 207.988453,135.13778 207.530369,135.13778 C207.287853,135.13778 207.08576,135.003052 206.924083,134.73359 L201.588771,125.639308 C201.427095,125.369847 201.346257,125.033025 201.346257,124.628833 C201.346257,123.847394 201.54835,123.119859 201.952543,122.446205 L220.706972,89.9493053 C221.00338,89.4103822 221.454721,88.9523045 222.06101,88.5750583 C222.667298,88.1978122 223.239896,88.0091919 223.778819,88.0091919 L233.479386,88.0091919 C234.206932,88.0091919 234.5707,88.3325409 234.5707,88.9792486 C234.5707,89.2756563 234.476389,89.5990053 234.287766,89.9493053 L232.024301,93.8295322 C231.835678,94.1798322 231.741368,94.5031812 231.741368,94.7995889 C231.741368,95.4462966 232.118608,95.7696456 232.8731,95.7696456 C233.843162,95.7696456 234.328185,95.9986845 234.328185,96.4567691 C234.328185,96.8609614 233.977891,97.1843104 233.277291,97.4268258 C232.711421,97.6154489 232.199452,97.709759 231.741368,97.709759 C231.202444,97.709759 230.636584,97.8983793 230.043768,98.2756254 C229.450953,98.6528716 228.992875,99.1109493 228.669521,99.6498724 Z M248.838617,99.6498724 L262.419411,99.6498724 C263.146957,99.6498724 263.510725,99.9732214 263.510725,100.619929 C263.510725,100.916337 263.416415,101.239686 263.227792,101.589986 L253.123034,119.051007 C252.826626,119.58993 252.375285,120.048007 251.768997,120.425254 C251.162708,120.8025 250.603584,120.99112 250.091607,120.99112 L240.39104,120.99112 C239.636548,120.99112 239.259307,120.667771 239.259307,120.021063 C239.259307,119.724656 239.353617,119.401307 239.54224,119.051007 L248.515265,103.530099 C248.703888,103.179799 248.798198,102.85645 248.798198,102.560043 C248.798198,101.913335 248.43443,101.589986 247.706884,101.589986 C247.167961,101.589986 246.6021,101.778606 246.009285,102.155852 C245.41647,102.533098 244.958392,102.991176 244.635038,103.530099 L235.662013,119.051007 C235.365606,119.58993 234.914264,120.048007 234.307976,120.425254 C233.701687,120.8025 233.142563,120.99112 232.630586,120.99112 L222.930019,120.99112 C222.175527,120.99112 221.798286,120.667771 221.798286,120.021063 C221.798286,119.724656 221.892596,119.401307 222.081219,119.051007 L240.876068,86.5541068 C241.280261,85.8535068 241.69792,85.5032121 242.129058,85.5032121 C242.371574,85.5032121 242.573667,85.6244679 242.735344,85.8669833 L248.111074,95.001684 C248.272751,95.2711456 248.353589,95.6349132 248.353589,96.0929978 C248.353589,96.7666517 248.191914,97.3864039 247.86856,97.9522732 C247.706883,98.2217347 247.626046,98.4777193 247.626046,98.7202347 C247.626046,99.3399963 248.030232,99.6498724 248.838617,99.6498724 Z M275.515177,111.290553 C274.976253,111.290553 274.410393,111.479173 273.817577,111.856419 C273.224762,112.233666 272.780157,112.691743 272.483749,113.230666 L270.220284,117.110893 C270.031661,117.461193 269.93735,117.784542 269.93735,118.08095 C269.93735,118.727658 270.301118,119.051007 271.028664,119.051007 C271.567587,119.051007 272.140185,118.862386 272.746473,118.48514 C273.352761,118.107894 273.804103,117.649816 274.100511,117.110893 L275.232243,115.17078 C275.528651,114.631857 275.979992,114.173779 276.586281,113.796533 C277.192569,113.419287 277.765166,113.230666 278.30409,113.230666 L288.004657,113.230666 C288.732203,113.230666 289.09597,113.554015 289.09597,114.200723 C289.09597,114.497131 289.00166,114.82048 288.813037,115.17078 L286.549572,119.051007 C286.253164,119.58993 285.801823,120.048007 285.195534,120.425254 C284.589246,120.8025 284.030121,120.99112 283.518144,120.99112 L256.356557,120.99112 C255.602064,120.99112 255.224824,120.667771 255.224824,120.021063 C255.224824,119.724656 255.319134,119.401307 255.507757,119.051007 L265.612514,101.589986 C265.908922,101.051063 266.360263,100.592985 266.966552,100.215739 C267.57284,99.8384927 268.145437,99.6498724 268.684361,99.6498724 L295.845948,99.6498724 C296.573495,99.6498724 296.937262,99.9732214 296.937262,100.619929 C296.937262,100.916337 296.842952,101.239686 296.654329,101.589986 L292.167817,109.35044 C291.871409,109.889363 291.420068,110.34744 290.813779,110.724687 C290.207491,111.101933 289.634894,111.290553 289.09597,111.290553 L275.515177,111.290553 Z M278.061575,103.530099 L275.838529,107.410326 C275.62296,107.760626 275.515177,108.083975 275.515177,108.380383 C275.515177,109.027091 275.892417,109.35044 276.646909,109.35044 C277.185832,109.35044 277.751693,109.161819 278.344509,108.784573 C278.937324,108.407327 279.395402,107.949249 279.718756,107.410326 L281.941802,103.530099 C282.130425,103.179799 282.224735,102.85645 282.224735,102.560043 C282.224735,101.913335 281.860968,101.589986 281.133422,101.589986 C280.594499,101.589986 280.028638,101.778606 279.435822,102.155852 C278.843007,102.533098 278.384929,102.991176 278.061575,103.530099 Z" id="path-2"></path>
        <linearGradient x1="50%" y1="0%" x2="50%" y2="100%" id="linearGradient-3">
            <stop stop-color="#F5515F" offset="0%"></stop>
            <stop stop-color="#9F041B" offset="100%"></stop>
        </linearGradient>
    </defs>
    <g id="Page-1" stroke="none" stroke-width="1" fill="none" fill-rule="evenodd">
        <g id="Desktop-HD" transform="translate(-407.000000, -127.000000)">
            <g id="Group-2" transform="translate(406.000000, 127.000000)">
                <path d="M9.10465841,244.446923 C8.95180608,244.446923 8.79895604,244.441044 8.64610371,244.429286 C7.01175953,244.358739 5.51265337,243.929583 4.14874025,243.141805 C2.59670117,242.248207 1.54438744,241.054801 0.991767465,239.561551 L3.17872068,238.767899 C3.55497257,239.779076 4.31922277,240.596236 5.47149421,241.219403 C6.48267118,241.760265 7.57613685,242.060086 8.75192402,242.118876 C10.5508784,242.189423 12.0558634,241.736752 13.2669242,240.760848 C14.3486484,239.890766 14.9188966,238.867846 14.977686,237.692059 C15.071749,235.481579 13.0494254,233.79435 8.9106545,232.630321 C5.92415507,231.795512 3.79013336,230.6315 2.50852534,229.13825 C1.53262198,227.997737 1.07407186,226.716148 1.13286122,225.293445 C1.23868207,222.883082 2.26160157,221.084154 4.2016504,219.896609 C5.74193161,218.955979 7.60552632,218.538581 9.79249047,218.644402 C12.4262537,218.761981 14.5308812,219.667323 16.106436,221.360457 L14.3956742,222.947762 C13.2551607,221.713185 11.6855084,221.048875 9.68667015,220.954812 C7.97002088,220.884265 6.54733974,221.189965 5.41858405,221.871922 C4.18400751,222.636183 3.53145542,223.811953 3.46090819,225.399266 C3.36684521,227.562714 5.38916882,229.226428 9.52793968,230.390457 C12.5144391,231.225266 14.6484608,232.395157 15.9300688,233.900164 C16.9059722,235.052436 17.3645223,236.345782 17.305733,237.780243 C17.21167,239.67326 16.3533582,241.272307 14.7307719,242.57743 C13.1787328,243.823765 11.3033804,244.446923 9.10465841,244.446923 Z M45.0567746,218.873679 L47.3848215,218.873679 L47.3848215,244.200009 L45.0567746,244.200009 L45.0567746,232.665594 L32.2172428,232.665594 L32.2172428,244.200009 L29.8891958,244.200009 L29.8891958,218.873679 L32.2172428,218.873679 L32.2172428,230.337547 L45.0567746,230.337547 L45.0567746,218.873679 Z M72.7372693,220.972449 C69.8213171,220.972449 67.3286857,222.007126 65.2593002,224.076512 C63.1899148,226.145897 62.1552376,228.638528 62.1552376,231.554481 C62.1552376,234.470433 63.1899148,236.963064 65.2593002,239.03245 C67.3286857,241.101835 69.8213171,242.136512 72.7372693,242.136512 C75.6532215,242.136512 78.1458529,241.101835 80.2152383,239.03245 C82.2846238,236.963064 83.3193009,234.470433 83.3193009,231.554481 C83.3193009,228.638528 82.2846238,226.145897 80.2152383,224.076512 C78.1458529,222.007126 75.6532215,220.972449 72.7372693,220.972449 Z M72.7372693,244.464559 C69.1746341,244.464559 66.1352699,243.200607 63.6190853,240.672665 C61.0911429,238.15648 59.8271906,235.117116 59.8271906,231.554481 C59.8271906,227.991846 61.0911429,224.946602 63.6190853,222.41866 C66.1352699,219.902475 69.1746341,218.644402 72.7372693,218.644402 C76.2999044,218.644402 79.3451475,219.902475 81.87309,222.41866 C84.3892745,224.946602 85.6473479,227.991846 85.6473479,231.554481 C85.6473479,235.117116 84.3892745,238.15648 81.87309,240.672665 C79.3451475,243.200607 76.2999044,244.464559 72.7372693,244.464559 Z M95.0385646,218.873679 L110.647061,218.873679 L110.647061,221.201726 L104.015655,221.201726 L104.015655,244.200009 L101.687608,244.200009 L101.687608,221.201726 L95.0385646,221.201726 L95.0385646,218.873679 Z M141.210823,218.873679 L156.81932,218.873679 L156.81932,221.201726 L150.187913,221.201726 L150.187913,244.200009 L147.859866,244.200009 L147.859866,221.201726 L141.210823,221.201726 L141.210823,218.873679 Z M184.640908,218.873679 L186.968955,218.873679 L186.968955,244.200009 L184.640908,244.200009 L184.640908,232.665594 L171.801377,232.665594 L171.801377,244.200009 L169.47333,244.200009 L169.47333,218.873679 L171.801377,218.873679 L171.801377,230.337547 L184.640908,230.337547 L184.640908,218.873679 Z M200.592985,218.873679 L213.5207,218.873679 L213.5207,221.201726 L202.921032,221.201726 L202.921032,230.337547 L211.298473,230.337547 L211.298473,232.665594 L202.921032,232.665594 L202.921032,241.871962 L213.5207,241.871962 L213.5207,244.200009 L200.592985,244.200009 L200.592985,218.873679 Z M247.541259,241.889598 L251.456611,241.889598 C254.313773,241.889598 256.753495,240.878436 258.775849,238.856083 C260.798203,236.833729 261.809365,234.394007 261.809365,231.536844 C261.809365,228.679681 260.798203,226.239959 258.775849,224.217605 C256.753495,222.195251 254.313773,221.18409 251.456611,221.18409 L247.541259,221.18409 L247.541259,241.889598 Z M245.230849,244.200009 L245.230849,218.873679 L251.456611,218.873679 C254.948699,218.873679 257.935153,220.114116 260.416064,222.595027 C262.885217,225.06418 264.119775,228.044756 264.119775,231.536844 C264.119775,235.028932 262.885217,238.009508 260.416064,240.478661 C257.935153,242.959572 254.948699,244.200009 251.456611,244.200009 L245.230849,244.200009 Z M288.678571,218.873679 L291.782633,218.873679 L291.782633,244.200009 L289.472223,244.200009 L289.472223,237.868426 L279.419293,237.868426 L275.415758,244.200009 L272.664429,244.200009 L288.678571,218.873679 Z M289.472223,221.977742 L280.883141,235.540379 L289.472223,235.540379 L289.472223,221.977742 Z M327.487835,218.873679 L329.904066,218.873679 L329.904066,244.182372 L327.593656,244.182372 L327.593656,224.499793 L319.07512,244.200009 L316.535432,244.200009 L308.034534,224.499793 L308.034534,244.182372 L305.706487,244.182372 L305.706487,218.873679 L308.140354,218.873679 L317.805276,241.272313 L327.487835,218.873679 Z M358.237119,218.873679 L361.341182,218.873679 L361.341182,244.200009 L359.030772,244.200009 L359.030772,237.868426 L348.977841,237.868426 L344.974306,244.200009 L342.222978,244.200009 L358.237119,218.873679 Z M359.030772,221.977742 L350.441689,235.540379 L359.030772,235.540379 L359.030772,221.977742 Z M386.90527,244.446923 C383.342635,244.446923 380.303271,243.18297 377.787086,240.655028 C375.259144,238.138843 373.995192,235.099479 373.995192,231.536844 C373.995192,227.985967 375.259144,224.946602 377.787086,222.41866 C380.303271,219.902475 383.342635,218.644402 386.90527,218.644402 C388.657193,218.644402 390.332665,218.979496 391.931735,219.649695 L391.014626,221.801375 C389.709502,221.248755 388.339731,220.972449 386.90527,220.972449 C383.989318,220.972449 381.496687,222.001247 379.427301,224.058875 C377.357916,226.12826 376.323239,228.620892 376.323239,231.536844 C376.323239,234.452796 377.357916,236.945428 379.427301,239.014813 C381.496687,241.084198 383.989318,242.118876 386.90527,242.118876 C388.081057,242.118876 389.221554,241.930752 390.326794,241.554501 L390.326794,232.630321 L385.053415,232.630321 L385.053415,230.302274 L392.654841,230.302274 L392.654841,243.124169 L391.949372,243.423993 C390.338544,244.105949 388.657193,244.446923 386.90527,244.446923 Z M405.520491,218.873679 L418.448206,218.873679 L418.448206,221.201726 L407.848538,221.201726 L407.848538,230.337547 L416.22598,230.337547 L416.22598,232.665594 L407.848538,232.665594 L407.848538,241.871962 L418.448206,241.871962 L418.448206,244.200009 L405.520491,244.200009 L405.520491,218.873679 Z M433.55372,241.889598 L437.469072,241.889598 C440.326235,241.889598 442.765957,240.878436 444.788311,238.856083 C446.810664,236.833729 447.821826,234.394007 447.821826,231.536844 C447.821826,228.679681 446.810664,226.239959 444.788311,224.217605 C442.765957,222.195251 440.326235,221.18409 437.469072,221.18409 L433.55372,221.18409 L433.55372,241.889598 Z M431.24331,244.200009 L431.24331,218.873679 L437.469072,218.873679 C440.96116,218.873679 443.947614,220.114116 446.428525,222.595027 C448.897678,225.06418 450.132237,228.044756 450.132237,231.536844 C450.132237,235.028932 448.897678,238.009508 446.428525,240.478661 C443.947614,242.959572 440.96116,244.200009 437.469072,244.200009 L431.24331,244.200009 Z M484.346799,230.31991 L489.637815,230.31991 C490.88415,230.31991 491.9541,229.873118 492.847698,228.97952 C493.741296,228.085921 494.188089,227.010092 494.188089,225.752 C494.188089,224.493908 493.741296,223.423957 492.847698,222.542117 C491.9541,221.648519 490.88415,221.201726 489.637815,221.201726 L484.346799,221.201726 L484.346799,230.31991 Z M484.346799,241.871962 L491.136936,241.871962 C492.406786,241.871962 493.494373,241.41929 494.399729,240.513934 C495.293328,239.608578 495.74012,238.515112 495.74012,237.233504 C495.74012,235.975412 495.293328,234.893704 494.399729,233.988348 C493.494373,233.09475 492.406786,232.647957 491.136936,232.647957 L484.346799,232.647957 L484.346799,241.871962 Z M482.018752,244.200009 L482.018752,218.873679 L489.637815,218.873679 C491.530833,218.873679 493.147516,219.543868 494.487913,220.884265 C495.840068,222.236421 496.516136,223.858983 496.516136,225.752 C496.516136,227.856659 495.710734,229.602677 494.099905,230.990106 C495.299208,231.554483 496.25746,232.38928 496.97469,233.49452 C497.703679,234.635033 498.068167,235.881349 498.068167,237.233504 C498.068167,239.161795 497.3921,240.801994 496.039944,242.154149 C494.676031,243.518062 493.041712,244.200009 491.136936,244.200009 L482.018752,244.200009 Z M522.697509,220.972449 C519.781557,220.972449 517.288926,222.007126 515.21954,224.076512 C513.150155,226.145897 512.115478,228.638528 512.115478,231.554481 C512.115478,234.470433 513.150155,236.963064 515.21954,239.03245 C517.288926,241.101835 519.781557,242.136512 522.697509,242.136512 C525.613462,242.136512 528.106093,241.101835 530.175478,239.03245 C532.244864,236.963064 533.279541,234.470433 533.279541,231.554481 C533.279541,228.638528 532.244864,226.145897 530.175478,224.076512 C528.106093,222.007126 525.613462,220.972449 522.697509,220.972449 Z M522.697509,244.464559 C519.134874,244.464559 516.09551,243.200607 513.579325,240.672665 C511.051383,238.15648 509.787431,235.117116 509.787431,231.554481 C509.787431,227.991846 511.051383,224.946602 513.579325,222.41866 C516.09551,219.902475 519.134874,218.644402 522.697509,218.644402 C526.260144,218.644402 529.305388,219.902475 531.83333,222.41866 C534.349515,224.946602 535.607588,227.991846 535.607588,231.554481 C535.607588,235.117116 534.349515,238.15648 531.83333,240.672665 C529.305388,243.200607 526.260144,244.464559 522.697509,244.464559 Z M559.654918,218.873679 L562.3357,218.873679 L554.75191,231.766121 L562.071149,244.200009 L559.372731,244.200009 L553.393883,234.058895 L547.432672,244.200009 L544.734254,244.200009 L552.053492,231.766121 L544.452066,218.873679 L547.150484,218.873679 L553.393883,229.490984 L559.654918,218.873679 Z M574.760432,218.873679 L587.688148,218.873679 L587.688148,221.201726 L577.088479,221.201726 L577.088479,230.337547 L585.465921,230.337547 L585.465921,232.665594 L577.088479,232.665594 L577.088479,241.871962 L587.688148,241.871962 L587.688148,244.200009 L574.760432,244.200009 L574.760432,218.873679 Z M607.414482,244.446923 C607.26163,244.446923 607.108779,244.441044 606.955927,244.429286 C605.321583,244.358739 603.822477,243.929583 602.458564,243.141805 C600.906525,242.248207 599.854211,241.054801 599.301591,239.561551 L601.488544,238.767899 C601.864796,239.779076 602.629046,240.596236 603.781318,241.219403 C604.792495,241.760265 605.88596,242.060086 607.061747,242.118876 C608.860702,242.189423 610.365687,241.736752 611.576748,240.760848 C612.658472,239.890766 613.22872,238.867846 613.287509,237.692059 C613.381572,235.481579 611.359249,233.79435 607.220478,232.630321 C604.233978,231.795512 602.099957,230.6315 600.818349,229.13825 C599.842445,227.997737 599.383895,226.716148 599.442685,225.293445 C599.548505,222.883082 600.571425,221.084154 602.511474,219.896609 C604.051755,218.955979 605.91535,218.538581 608.102314,218.644402 C610.736077,218.761981 612.840705,219.667323 614.416259,221.360457 L612.705498,222.947762 C611.564984,221.713185 609.995332,221.048875 607.996494,220.954812 C606.279844,220.884265 604.857163,221.189965 603.728407,221.871922 C602.493831,222.636183 601.841279,223.811953 601.770732,225.399266 C601.676669,227.562714 603.698992,229.226428 607.837763,230.390457 C610.824263,231.225266 612.958284,232.395157 614.239892,233.900164 C615.215796,235.052436 615.674346,236.345782 615.615556,237.780243 C615.521493,239.67326 614.663182,241.272307 613.040595,242.57743 C611.488556,243.823765 609.613204,244.446923 607.414482,244.446923 Z" id="SHOT-THE-DAMAGED-BOX" fill="#FFFFFF"></path>
                <path d="M42.5574893,32.1786793 L103.671062,32.1786793 C105.308041,32.1786793 106.126518,32.9062145 106.126518,34.3613069 C106.126518,35.0282242 105.91432,35.7557594 105.489918,36.5439345 L82.7542142,75.8312312 C82.0872969,77.0438081 81.071779,78.0744831 79.7076299,78.9232869 C78.3434808,79.7720908 77.0854511,80.1964864 75.933503,80.1964864 L14.8199303,80.1964864 C13.1223226,80.1964864 12.2735314,79.4689511 12.2735314,78.0138588 C12.2735314,77.3469415 12.4857292,76.6194062 12.9101312,75.8312312 L23.0047838,58.3702104 C23.73233,57.1576335 24.7630049,56.1269585 26.0968396,55.2781547 C27.4306742,54.4293508 28.7038609,54.0049552 29.9164379,54.0049552 L60.4732242,54.0049552 C61.6858011,54.0049552 62.9589878,53.5805597 64.2928225,52.7317558 C65.6266571,51.8829519 66.6573321,50.852277 67.3848783,49.6397 L72.3867332,40.9091896 C72.8111351,40.1210146 73.0233329,39.3934794 73.0233329,38.726562 C73.0233329,37.2714697 72.2048557,36.5439345 70.5678768,36.5439345 C69.3552999,36.5439345 68.0821132,36.96833 66.7482785,37.8171339 C65.4144439,38.6659377 64.3837689,39.6966127 63.6562228,40.9091896 L61.1098239,45.2744448 C60.4429066,46.4870218 59.4273886,47.5176967 58.0632396,48.3665006 C56.6990905,49.2153045 55.4410608,49.6397 54.2891127,49.6397 L32.4628367,49.6397 C30.765229,49.6397 29.9164379,48.9121648 29.9164379,47.4570724 C29.9164379,46.7901551 30.1286356,46.0626199 30.5530376,45.2744448 L35.6458353,36.5439345 C36.3127526,35.3313575 37.3282706,34.3006826 38.6924196,33.4518787 C40.0565687,32.6030748 41.3449124,32.1786793 42.5574893,32.1786793 Z M54.7438268,71.465976 L59.8366245,62.7354656 C60.2610264,61.9472906 60.4732242,61.2197553 60.4732242,60.552838 C60.4732242,59.0977457 59.6244331,58.3702104 57.9268253,58.3702104 C56.7142484,58.3702104 55.4410617,58.794606 54.107227,59.6434098 C52.7733924,60.4922137 51.7730314,61.5228887 51.1061141,62.7354656 L46.0133164,71.465976 C45.5889144,72.254151 45.3767167,72.9816863 45.3767167,73.6486036 C45.3767167,75.1036959 46.1951938,75.8312312 47.8321727,75.8312312 C49.0447497,75.8312312 50.3330933,75.4068356 51.6972424,74.5580318 C53.0613915,73.7092279 54.0769094,72.6785529 54.7438268,71.465976 Z M143.776844,32.1786793 L99.1239212,109.661959 C98.2144885,111.238309 97.2444415,112.026472 96.2137511,112.026472 C95.6680915,112.026472 95.2133819,111.723332 94.8496088,111.117044 L82.8451571,90.6549103 C82.481384,90.0486218 82.2995002,89.2907726 82.2995002,88.3813399 C82.2995002,86.6231033 82.7542097,84.986149 83.6636424,83.4704278 L125.861109,10.3524033 C126.528027,9.13982635 127.543545,8.1091514 128.907694,7.26034754 C130.271843,6.41154367 131.560186,5.98714811 132.772763,5.98714811 L154.599039,5.98714811 C156.236018,5.98714811 157.054495,6.71468336 157.054495,8.1697757 C157.054495,8.83669302 156.842298,9.56422828 156.417896,10.3524033 L151.325098,19.0829137 C150.900696,19.8710887 150.688498,20.598624 150.688498,21.2655413 C150.688498,22.7206336 151.537289,23.4481689 153.234897,23.4481689 C155.417536,23.4481689 156.508838,23.9635063 156.508838,24.9941968 C156.508838,25.9036295 155.720675,26.6311647 154.144325,27.1768244 C152.871119,27.6012263 151.719189,27.8134241 150.688498,27.8134241 C149.475921,27.8134241 148.202735,28.2378196 146.8689,29.0866235 C145.535065,29.9354274 144.50439,30.9661023 143.776844,32.1786793 Z M184.33734,32.1786793 L139.684417,109.661959 C138.774985,111.238309 137.804938,112.026472 136.774247,112.026472 C136.228588,112.026472 135.773878,111.723332 135.410105,111.117044 L123.405653,90.6549103 C123.04188,90.0486218 122.859996,89.2907726 122.859996,88.3813399 C122.859996,86.6231033 123.314706,84.986149 124.224139,83.4704278 L166.421605,10.3524033 C167.088523,9.13982635 168.104041,8.1091514 169.46819,7.26034754 C170.832339,6.41154367 172.120683,5.98714811 173.333259,5.98714811 L195.159535,5.98714811 C196.796514,5.98714811 197.614991,6.71468336 197.614991,8.1697757 C197.614991,8.83669302 197.402794,9.56422828 196.978392,10.3524033 L191.885594,19.0829137 C191.461192,19.8710887 191.248994,20.598624 191.248994,21.2655413 C191.248994,22.7206336 192.097785,23.4481689 193.795393,23.4481689 C195.978032,23.4481689 197.069335,23.9635063 197.069335,24.9941968 C197.069335,25.9036295 196.281171,26.6311647 194.704821,27.1768244 C193.431616,27.6012263 192.279685,27.8134241 191.248994,27.8134241 C190.036417,27.8134241 188.763231,28.2378196 187.429396,29.0866235 C186.095561,29.9354274 185.064886,30.9661023 184.33734,32.1786793 Z M199.615733,32.1786793 L260.729306,32.1786793 C262.366285,32.1786793 263.184762,32.9062145 263.184762,34.3613069 C263.184762,35.0282242 262.972564,35.7557594 262.548162,36.5439345 L239.812458,75.8312312 C239.145541,77.0438081 238.130023,78.0744831 236.765874,78.9232869 C235.401725,79.7720908 234.143695,80.1964864 232.991747,80.1964864 L171.878174,80.1964864 C170.180567,80.1964864 169.331776,79.4689511 169.331776,78.0138588 C169.331776,77.3469415 169.543973,76.6194062 169.968375,75.8312312 L180.063028,58.3702104 C180.790574,57.1576335 181.821249,56.1269585 183.155084,55.2781547 C184.488918,54.4293508 185.762105,54.0049552 186.974682,54.0049552 L217.531468,54.0049552 C218.744045,54.0049552 220.017232,53.5805597 221.351067,52.7317558 C222.684901,51.8829519 223.715576,50.852277 224.443122,49.6397 L229.444977,40.9091896 C229.869379,40.1210146 230.081577,39.3934794 230.081577,38.726562 C230.081577,37.2714697 229.2631,36.5439345 227.626121,36.5439345 C226.413544,36.5439345 225.140357,36.96833 223.806523,37.8171339 C222.472688,38.6659377 221.442013,39.6966127 220.714467,40.9091896 L218.168068,45.2744448 C217.501151,46.4870218 216.485633,47.5176967 215.121484,48.3665006 C213.757335,49.2153045 212.499305,49.6397 211.347357,49.6397 L189.521081,49.6397 C187.823473,49.6397 186.974682,48.9121648 186.974682,47.4570724 C186.974682,46.7901551 187.18688,46.0626199 187.611282,45.2744448 L192.704079,36.5439345 C193.370997,35.3313575 194.386515,34.3006826 195.750664,33.4518787 C197.114813,32.6030748 198.403156,32.1786793 199.615733,32.1786793 Z M211.802071,71.465976 L216.894869,62.7354656 C217.319271,61.9472906 217.531468,61.2197553 217.531468,60.552838 C217.531468,59.0977457 216.682677,58.3702104 214.985069,58.3702104 C213.772492,58.3702104 212.499306,58.794606 211.165471,59.6434098 C209.831636,60.4922137 208.831276,61.5228887 208.164358,62.7354656 L203.07156,71.465976 C202.647159,72.254151 202.434961,72.9816863 202.434961,73.6486036 C202.434961,75.1036959 203.253438,75.8312312 204.890417,75.8312312 C206.102994,75.8312312 207.391337,75.4068356 208.755487,74.5580318 C210.119636,73.7092279 211.135154,72.6785529 211.802071,71.465976 Z M324.298335,49.6397 L302.472059,49.6397 C300.774451,49.6397 299.92566,48.9121648 299.92566,47.4570724 C299.92566,46.7901551 300.137858,46.0626199 300.56226,45.2744448 L303.108659,40.9091896 C303.533061,40.1210146 303.745258,39.3934794 303.745258,38.726562 C303.745258,37.2714697 302.926781,36.5439345 301.289802,36.5439345 C300.077225,36.5439345 298.804039,36.96833 297.470204,37.8171339 C296.136369,38.6659377 295.105694,39.6966127 294.378148,40.9091896 L276.735242,71.465976 C276.31084,72.254151 276.098642,72.9816863 276.098642,73.6486036 C276.098642,75.1036959 276.917119,75.8312312 278.554098,75.8312312 C279.766675,75.8312312 281.055019,75.4068356 282.419168,74.5580318 C283.783317,73.7092279 284.798835,72.6785529 285.465752,71.465976 L293.014006,58.3702104 C293.741552,57.1576335 294.772227,56.1269585 296.106062,55.2781547 C297.439896,54.4293508 298.713083,54.0049552 299.92566,54.0049552 L321.751936,54.0049552 C323.449544,54.0049552 324.298335,54.7324905 324.298335,56.1875828 C324.298335,56.8545001 324.055823,57.5820354 323.570792,58.3702104 L313.47614,75.8312312 C312.809222,77.0438081 311.793704,78.0744831 310.429555,78.9232869 C309.065406,79.7720908 307.807377,80.1964864 306.655428,80.1964864 L245.541856,80.1964864 C243.844248,80.1964864 242.995457,79.4689511 242.995457,78.0138588 C242.995457,77.3469415 243.207655,76.6194062 243.632057,75.8312312 L266.367761,36.5439345 C267.034678,35.3313575 268.050196,34.3006826 269.414345,33.4518787 C270.778494,32.6030748 272.066838,32.1786793 273.279415,32.1786793 L334.392988,32.1786793 C336.029966,32.1786793 336.848444,32.9062145 336.848444,34.3613069 C336.848444,35.0282242 336.636246,35.7557594 336.211844,36.5439345 L331.119046,45.2744448 C330.452129,46.4870218 329.436611,47.5176967 328.072462,48.3665006 C326.708313,49.2153045 325.450283,49.6397 324.298335,49.6397 Z M409.420811,36.5439345 L404.328013,45.2744448 C403.661096,46.4870218 402.645578,47.5176967 401.281429,48.3665006 C399.91728,49.2153045 398.65925,49.6397 397.507302,49.6397 L379.500624,49.6397 C377.499873,49.6397 376.499512,50.2459794 376.499512,51.4585564 C376.499512,51.7617006 376.590453,52.0951543 376.77234,52.4589273 L386.957935,69.7380625 C387.321709,70.344351 387.503592,71.1628281 387.503592,72.1935185 C387.503592,73.7092397 387.139825,75.1036823 386.412279,76.3768881 C385.80599,77.4075785 384.8511,78.3018406 383.54758,79.0597012 C382.24406,79.8175618 381.016344,80.1964864 379.864396,80.1964864 L358.03812,80.1964864 C356.340512,80.1964864 355.491721,79.4689511 355.491721,78.0138588 C355.491721,77.3469415 355.703919,76.6194062 356.128321,75.8312312 L368.769372,54.0049552 C369.193774,53.2167802 369.405972,52.4892449 369.405972,51.8223276 C369.405972,50.3672353 368.587495,49.6397 366.950516,49.6397 C365.737939,49.6397 364.449595,50.0640956 363.085446,50.9128995 C361.721297,51.7617033 360.705779,52.7923783 360.038862,54.0049552 L347.39781,75.8312312 C346.730893,77.0438081 345.715375,78.0744831 344.351226,78.9232869 C342.987077,79.7720908 341.729047,80.1964864 340.577099,80.1964864 L318.750823,80.1964864 C317.053215,80.1964864 316.204424,79.4689511 316.204424,78.0138588 C316.204424,77.3469415 316.416622,76.6194062 316.841024,75.8312312 L359.129434,2.71320671 C360.038866,1.13685668 360.978599,0.348693483 361.948661,0.348693483 C362.494321,0.348693483 362.94903,0.621519204 363.312803,1.16717883 L375.408198,21.7202554 C375.771971,22.3265438 375.953855,23.145021 375.953855,24.1757114 C375.953855,25.6914326 375.590087,27.0858752 374.862541,28.359081 L367.587116,40.9091896 C367.162714,41.6973647 366.950516,42.4248999 366.950516,43.0918172 C366.950516,44.5469096 367.768993,45.2744448 369.405972,45.2744448 C370.618549,45.2744448 371.906892,44.8500493 373.271042,44.0012454 C374.635191,43.1524415 375.650709,42.1217666 376.317626,40.9091896 L378.864025,36.5439345 C379.530942,35.3313575 380.54646,34.3006826 381.910609,33.4518787 C383.274758,32.6030748 384.563102,32.1786793 385.775679,32.1786793 L407.601955,32.1786793 C409.238934,32.1786793 410.057411,32.9062145 410.057411,34.3613069 C410.057411,35.0282242 409.845213,35.7557594 409.420811,36.5439345 Z" id="Attack" fill="#FFFFFF"></path>
                <g id="of">
                    <use fill="#000000" xlink:href="#path-1"></use>
                    <use fill="#FFFFFF" xlink:href="#path-1"></use>
                </g>
                <g id="the">
                    <use fill="#000000" xlink:href="#path-2"></use>
                    <use fill="#FFFFFF" xlink:href="#path-2"></use>
                </g>
                <path d="M120.328923,98.5049667 L136.456116,125.909069 C136.941146,126.717453 137.183658,127.808756 137.183658,129.18301 C137.183658,131.203972 136.698635,133.063228 135.728573,134.760836 L99.2301895,198.057037 C98.2601279,199.673806 96.8858946,201.048039 95.1074484,202.179778 C93.3290023,203.311516 91.63142,203.877377 90.0146507,203.877377 L8.52988714,203.877377 C6.26641016,203.877377 5.13468865,202.90733 5.13468865,200.967207 C5.13468865,200.077984 5.45803766,199.107937 6.10474536,198.057037 L36.2977604,145.673974 C37.267822,144.057205 38.6420553,142.682972 40.4205015,141.551233 C42.1989477,140.419495 43.8965299,139.853634 45.5132992,139.853634 L86.255681,139.853634 C87.8724502,139.853634 89.5700325,139.287773 91.3484787,138.156035 C93.1269249,137.024296 94.5011582,135.650063 95.4712197,134.033294 L114.751097,100.566337 C115.963674,98.4645372 117.25707,97.4136529 118.631324,97.4136529 C119.35887,97.4136529 119.924731,97.7774205 120.328923,98.5049667 Z M61.8830062,192.236696 L85.2856243,151.494314 C85.932332,150.443414 86.255681,149.473367 86.255681,148.584144 C86.255681,146.644021 85.1239595,145.673974 82.8604825,145.673974 C81.2437132,145.673974 79.546131,146.239835 77.7676848,147.371573 C75.9892386,148.503312 74.6150053,149.877545 73.6449438,151.494314 L50.2423256,192.236696 C49.5956179,193.287596 49.2722689,194.257643 49.2722689,195.146866 C49.2722689,197.086989 50.4039904,198.057037 52.6674674,198.057037 C54.2842367,198.057037 55.9818189,197.491176 57.7602651,196.359437 C59.5387113,195.227699 60.9129446,193.853466 61.8830062,192.236696 Z M145.792912,139.853634 L227.277675,139.853634 C229.460314,139.853634 230.551616,140.823681 230.551616,142.763804 C230.551616,143.653027 230.268686,144.623074 229.702817,145.673974 L222.91242,157.314655 C222.023197,158.931424 220.669173,160.305657 218.850307,161.437396 C217.031442,162.569134 215.354069,163.134995 213.818138,163.134995 L184.716437,163.134995 C182.45296,163.134995 181.321238,162.164948 181.321238,160.224825 C181.321238,159.335602 181.604169,158.365555 182.170038,157.314655 L185.565237,151.494314 C186.131106,150.443414 186.414036,149.473367 186.414036,148.584144 C186.414036,146.644021 185.322733,145.673974 183.140095,145.673974 C181.523326,145.673974 179.825743,146.239835 178.047297,147.371573 C176.268851,148.503312 174.894618,149.877545 173.924556,151.494314 L147.005482,198.057037 C146.116259,199.673806 144.762235,201.048039 142.94337,202.179778 C141.124505,203.311516 139.447132,203.877377 137.911201,203.877377 L108.809499,203.877377 C106.546022,203.877377 105.414301,202.90733 105.414301,200.967207 C105.414301,200.077984 105.697231,199.107937 106.263101,198.057037 L136.577373,145.673974 C137.466596,144.057205 138.82062,142.682972 140.639485,141.551233 C142.458351,140.419495 144.176142,139.853634 145.792912,139.853634 Z M243.404868,139.853634 L324.889631,139.853634 C327.07227,139.853634 328.163573,140.823681 328.163573,142.763804 C328.163573,143.653027 327.880642,144.623074 327.314773,145.673974 L297.000501,198.057037 C296.111278,199.673806 294.757254,201.048039 292.938389,202.179778 C291.119523,203.311516 289.44215,203.877377 287.906219,203.877377 L206.421456,203.877377 C204.157979,203.877377 203.026257,202.90733 203.026257,200.967207 C203.026257,200.077984 203.309188,199.107937 203.875057,198.057037 L234.189329,145.673974 C235.078552,144.057205 236.432576,142.682972 238.251442,141.551233 C240.070307,140.419495 241.788099,139.853634 243.404868,139.853634 Z M259.653318,192.236696 L283.177193,151.494314 C283.743062,150.443414 284.025993,149.473367 284.025993,148.584144 C284.025993,146.644021 282.93469,145.673974 280.752051,145.673974 C279.135282,145.673974 277.4377,146.239835 275.659253,147.371573 C273.880807,148.503312 272.506574,149.877545 271.536512,151.494314 L248.012637,192.236696 C247.446768,193.287596 247.163838,194.257643 247.163838,195.146866 C247.163838,197.086989 248.255141,198.057037 250.437779,198.057037 C252.054548,198.057037 253.77234,197.491176 255.591205,196.359437 C257.410071,195.227699 258.764095,193.853466 259.653318,192.236696 Z M342.835681,139.853634 L424.320444,139.853634 C426.503083,139.853634 427.594386,140.823681 427.594386,142.763804 C427.594386,143.653027 427.311455,144.623074 426.745586,145.673974 L396.431314,198.057037 C395.542091,199.673806 394.188067,201.048039 392.369201,202.179778 C390.550336,203.311516 388.872963,203.877377 387.337032,203.877377 L358.235331,203.877377 C355.971854,203.877377 354.840132,202.90733 354.840132,200.967207 C354.840132,200.077984 355.123063,199.107937 355.688932,198.057037 L382.608006,151.494314 C383.173875,150.443414 383.456805,149.473367 383.456805,148.584144 C383.456805,146.644021 382.365502,145.673974 380.182864,145.673974 C378.566095,145.673974 376.868512,146.239835 375.090066,147.371573 C373.31162,148.503312 371.937387,149.877545 370.967325,151.494314 L344.048251,198.057037 C343.159028,199.673806 341.805004,201.048039 339.986139,202.179778 C338.167274,203.311516 336.489901,203.877377 334.95397,203.877377 L305.852269,203.877377 C303.588792,203.877377 302.45707,202.90733 302.45707,200.967207 C302.45707,200.077984 302.74,199.107937 303.30587,198.057037 L333.620142,145.673974 C334.509365,144.057205 335.863389,142.682972 337.682254,141.551233 C339.50112,140.419495 341.218911,139.853634 342.835681,139.853634 Z M462.758941,174.775675 C461.142172,174.775675 459.44459,175.341536 457.666144,176.473275 C455.887697,177.605013 454.553883,178.979246 453.66466,180.596016 L446.874263,192.236696 C446.308393,193.287596 446.025463,194.257643 446.025463,195.146866 C446.025463,197.086989 447.116766,198.057037 449.299404,198.057037 C450.916174,198.057037 452.633965,197.491176 454.452831,196.359437 C456.271696,195.227699 457.62572,193.853466 458.514943,192.236696 L461.910142,186.416356 C462.799365,184.799587 464.153389,183.425353 465.972254,182.293615 C467.79112,181.161876 469.508911,180.596016 471.12568,180.596016 L500.227382,180.596016 C502.41002,180.596016 503.501323,181.566063 503.501323,183.506186 C503.501323,184.395409 503.218393,185.365456 502.652523,186.416356 L495.862127,198.057037 C494.972903,199.673806 493.618879,201.048039 491.800014,202.179778 C489.981149,203.311516 488.303776,203.877377 486.767845,203.877377 L405.283081,203.877377 C403.019604,203.877377 401.887883,202.90733 401.887883,200.967207 C401.887883,200.077984 402.170813,199.107937 402.736682,198.057037 L433.050955,145.673974 C433.940178,144.057205 435.294202,142.682972 437.113067,141.551233 C438.931932,140.419495 440.649724,139.853634 442.266493,139.853634 L523.751257,139.853634 C525.933895,139.853634 527.025198,140.823681 527.025198,142.763804 C527.025198,143.653027 526.742268,144.623074 526.176399,145.673974 L512.716862,168.955335 C511.827639,170.572104 510.473615,171.946338 508.654749,173.078076 C506.835884,174.209815 505.118092,174.775675 503.501323,174.775675 L462.758941,174.775675 Z M470.398138,151.494314 L463.728998,163.134995 C463.08229,164.185895 462.758941,165.155942 462.758941,166.045165 C462.758941,167.985288 463.890663,168.955335 466.15414,168.955335 C467.770909,168.955335 469.468491,168.389474 471.246938,167.257736 C473.025384,166.125997 474.399617,164.751764 475.369679,163.134995 L482.038818,151.494314 C482.604688,150.443414 482.887618,149.473367 482.887618,148.584144 C482.887618,146.644021 481.796315,145.673974 479.613677,145.673974 C477.996907,145.673974 476.299325,146.239835 474.520879,147.371573 C472.742433,148.503312 471.368199,149.877545 470.398138,151.494314 Z M610.328818,163.134995 L581.227117,163.134995 C578.96364,163.134995 577.831918,162.164948 577.831918,160.224825 C577.831918,159.335602 578.114849,158.365555 578.680718,157.314655 L582.075917,151.494314 C582.641786,150.443414 582.924716,149.473367 582.924716,148.584144 C582.924716,146.644021 581.833413,145.673974 579.650775,145.673974 C578.034006,145.673974 576.336423,146.239835 574.557977,147.371573 C572.779531,148.503312 571.405298,149.877545 570.435236,151.494314 L563.766096,163.134995 C563.119388,164.185895 562.796039,165.155942 562.796039,166.045165 C562.796039,167.985288 563.927761,168.955335 566.191238,168.955335 L606.93362,168.955335 C609.197097,168.955335 610.328818,169.925382 610.328818,171.865505 C610.328818,172.754728 610.005469,173.724775 609.358762,174.775675 L595.899225,198.057037 C595.010002,199.673806 593.655978,201.048039 591.837112,202.179778 C590.018247,203.311516 588.340874,203.877377 586.804943,203.877377 L505.320179,203.877377 C503.056702,203.877377 501.924981,202.90733 501.924981,200.967207 C501.924981,200.077984 502.207911,199.107937 502.773781,198.057037 L509.564178,186.416356 C510.453401,184.799587 511.807425,183.425353 513.62629,182.293615 C515.445155,181.161876 517.162947,180.596016 518.779716,180.596016 L547.881418,180.596016 C550.064056,180.596016 551.155359,181.566063 551.155359,183.506186 C551.155359,184.395409 550.872429,185.365456 550.306559,186.416356 L546.911361,192.236696 C546.345492,193.287596 546.062561,194.257643 546.062561,195.146866 C546.062561,197.086989 547.153864,198.057037 549.336503,198.057037 C550.953272,198.057037 552.671063,197.491176 554.489929,196.359437 C556.308794,195.227699 557.662818,193.853466 558.552041,192.236696 L565.342438,180.596016 C565.908308,179.545116 566.191238,178.575069 566.191238,177.685846 C566.191238,175.745722 565.059516,174.775675 562.796039,174.775675 L522.053658,174.775675 C519.871019,174.775675 518.779716,173.805628 518.779716,171.865505 C518.779716,170.976282 519.062647,170.006235 519.628516,168.955335 L533.088053,145.673974 C533.977276,144.057205 535.3313,142.682972 537.150165,141.551233 C538.969031,140.419495 540.686822,139.853634 542.303591,139.853634 L623.788355,139.853634 C625.970994,139.853634 627.062296,140.823681 627.062296,142.763804 C627.062296,143.653027 626.779366,144.623074 626.213497,145.673974 L619.4231,157.314655 C618.533877,158.931424 617.179853,160.305657 615.360987,161.437396 C613.542122,162.569134 611.864749,163.134995 610.328818,163.134995 Z" id="Drones" stroke="#FFFFFF" stroke-width="3.14496025" fill="url(#linearGradient-3)" stroke-linecap="round" stroke-linejoin="round"></path>
            </g>
        </g>
    </g>
</svg>