<?xml version="1.0" encoding="UTF-8"?>
<svg width="754px" height="288px" viewBox="0 0 754 288" version="1.1" xmlns="http://www.w3.org/2000/svg" xmlns:xlink="http://www.w3.org/1999/xlink">
    <!-- Generator: Sketch 52.3 (67297) - http://www.bohemiancoding.com/sketch -->
    <title>Group</title>
    <desc>Created with Sketch.</desc>
    <defs>
        <path d="M194.596716,116.224901 L226.931939,116.224901 C227.798065,116.224901 228.231122,116.609841 228.231122,117.379731 C228.231122,117.732597 228.118848,118.117536 227.894296,118.53456 L215.864824,139.321489 C215.511957,139.963064 214.974646,140.508394 214.252874,140.957497 C213.531102,141.406599 212.865478,141.631147 212.255982,141.631147 L179.92076,141.631147 C179.022555,141.631147 178.573459,141.246208 178.573459,140.476318 C178.573459,140.123452 178.685733,139.738512 178.910284,139.321489 L190.939757,118.53456 C191.292623,117.892985 191.829934,117.347654 192.551706,116.898552 C193.273478,116.449449 193.955141,116.224901 194.596716,116.224901 Z M201.044514,137.01183 L210.379384,120.844219 C210.603936,120.427195 210.716209,120.042256 210.716209,119.689389 C210.716209,118.919499 210.283153,118.53456 209.417026,118.53456 C208.775451,118.53456 208.101808,118.759108 207.396075,119.20821 C206.690342,119.657313 206.145012,120.202644 205.760067,120.844219 L196.425196,137.01183 C196.200645,137.428854 196.088371,137.813793 196.088371,138.166659 C196.088371,138.936549 196.521427,139.321489 197.387554,139.321489 C198.029129,139.321489 198.710792,139.096941 199.432564,138.647838 C200.154336,138.198736 200.691647,137.653405 201.044514,137.01183 Z M257.390563,104.676608 C256.748988,104.676608 256.067325,104.901155 255.345553,105.350258 C254.623781,105.799361 254.08647,106.344691 253.733604,106.986266 L252.386303,109.295925 C252.161751,109.712949 252.049477,110.097888 252.049477,110.450754 C252.049477,111.220645 252.482534,111.605584 253.34866,111.605584 C254.503496,111.605584 255.080904,111.878249 255.080904,112.423588 C255.080904,112.904769 254.663887,113.289709 253.829839,113.578417 C253.188264,113.802969 252.594816,113.915243 252.049477,113.915243 C251.407902,113.915243 250.726239,114.13979 250.004467,114.588893 C249.282695,115.037996 248.745384,115.583326 248.392518,116.224901 L224.766634,157.173226 C224.285452,158.007274 223.7722,158.424291 223.226861,158.424291 C222.938152,158.424291 222.697565,158.279939 222.505093,157.99123 L216.153531,147.116587 C215.961059,146.827878 215.864824,146.4269 215.864824,145.91364 C215.864824,145.015435 216.105411,144.149321 216.586592,143.315274 L238.913293,104.676608 C239.26616,104.035032 239.795451,103.489702 240.501184,103.040599 C241.206916,102.591497 241.88056,102.366949 242.522135,102.366949 L258.689746,102.366949 C259.844581,102.366949 260.42199,102.639614 260.42199,103.184953 C260.42199,103.666134 260.004973,104.051074 259.170925,104.339782 C258.52935,104.564334 257.935902,104.676608 257.390563,104.676608 Z" id="path-1"></path>
        <path d="M278.22561,118.630796 L254.599726,159.627238 C254.118544,160.461286 253.605292,160.878304 253.059953,160.878304 C252.771244,160.878304 252.530657,160.717912 252.338185,160.397125 L245.986623,149.570599 C245.794151,149.249812 245.697916,148.848833 245.697916,148.367652 C245.697916,147.437368 245.938503,146.571255 246.419684,145.769286 L268.746385,107.082502 C269.099252,106.440927 269.636563,105.895596 270.358335,105.446494 C271.080107,104.997391 271.76177,104.772843 272.403345,104.772843 L283.951639,104.772843 C284.817765,104.772843 285.250822,105.157783 285.250822,105.927673 C285.250822,106.280539 285.138548,106.665478 284.913997,107.082502 L282.219395,111.70182 C281.994843,112.118843 281.882569,112.503783 281.882569,112.856649 C281.882569,113.626539 282.331665,114.011478 283.22987,114.011478 C284.384706,114.011478 284.962114,114.284144 284.962114,114.829482 C284.962114,115.310664 284.545097,115.695603 283.711049,115.984312 C283.037395,116.208863 282.427908,116.321137 281.882569,116.321137 C281.240994,116.321137 280.567351,116.545685 279.861618,116.994788 C279.155885,117.44389 278.610555,117.989221 278.22561,118.630796 Z M302.236437,118.630796 L318.404048,118.630796 C319.270175,118.630796 319.703231,119.015735 319.703231,119.785625 C319.703231,120.138491 319.590957,120.523431 319.366406,120.940455 L307.336933,141.727383 C306.984067,142.368958 306.446756,142.914289 305.724984,143.363391 C305.003212,143.812494 304.337588,144.037042 303.728092,144.037042 L292.179798,144.037042 C291.281593,144.037042 290.832497,143.652103 290.832497,142.882213 C290.832497,142.529346 290.944771,142.144407 291.169322,141.727383 L301.851494,123.250113 C302.076045,122.833089 302.188319,122.44815 302.188319,122.095284 C302.188319,121.325394 301.755263,120.940455 300.889136,120.940455 C300.247561,120.940455 299.573917,121.165002 298.868185,121.614105 C298.162452,122.063208 297.617122,122.608538 297.232176,123.250113 L286.550005,141.727383 C286.197139,142.368958 285.659827,142.914289 284.938055,143.363391 C284.216284,143.812494 283.550659,144.037042 282.941163,144.037042 L271.392869,144.037042 C270.494664,144.037042 270.045568,143.652103 270.045568,142.882213 C270.045568,142.529346 270.157842,142.144407 270.382394,141.727383 L292.757213,103.040599 C293.238394,102.206552 293.735607,101.789534 294.248867,101.789534 C294.537576,101.789534 294.778163,101.933886 294.970636,102.222595 L301.370315,113.097238 C301.562788,113.418026 301.659022,113.851083 301.659022,114.396421 C301.659022,115.19839 301.466553,115.936191 301.081608,116.609844 C300.889135,116.930632 300.7929,117.235376 300.7929,117.524084 C300.7929,118.261896 301.274074,118.630796 302.236437,118.630796 Z M333.994245,132.488748 C333.35267,132.488748 332.679026,132.713296 331.973293,133.162399 C331.267561,133.611501 330.738269,134.156832 330.385403,134.798407 L327.690801,139.417724 C327.46625,139.834748 327.353976,140.219688 327.353976,140.572554 C327.353976,141.342444 327.787033,141.727383 328.653159,141.727383 C329.294734,141.727383 329.976397,141.502835 330.698169,141.053733 C331.419941,140.60463 331.957252,140.0593 332.310119,139.417724 L333.65742,137.108066 C334.010286,136.466491 334.547597,135.92116 335.269369,135.472057 C335.991141,135.022955 336.672804,134.798407 337.314379,134.798407 L348.862673,134.798407 C349.728799,134.798407 350.161856,135.183346 350.161856,135.953236 C350.161856,136.306103 350.049582,136.691042 349.825031,137.108066 L347.130429,141.727383 C346.777563,142.368958 346.240251,142.914289 345.51848,143.363391 C344.796708,143.812494 344.131083,144.037042 343.521587,144.037042 L311.186365,144.037042 C310.28816,144.037042 309.839064,143.652103 309.839064,142.882213 C309.839064,142.529346 309.951338,142.144407 310.175889,141.727383 L322.205362,120.940455 C322.558228,120.298879 323.095539,119.753549 323.817311,119.304446 C324.539083,118.855344 325.220746,118.630796 325.862321,118.630796 L358.197544,118.630796 C359.06367,118.630796 359.496727,119.015735 359.496727,119.785625 C359.496727,120.138491 359.384453,120.523431 359.159901,120.940455 L353.818816,130.179089 C353.465949,130.820665 352.928638,131.365995 352.206866,131.815098 C351.485094,132.2642 350.803431,132.488748 350.161856,132.488748 L333.994245,132.488748 Z M337.025672,123.250113 L334.379188,127.869431 C334.122558,128.286455 333.994245,128.671394 333.994245,129.02426 C333.994245,129.79415 334.443341,130.179089 335.341546,130.179089 C335.983121,130.179089 336.656764,129.954542 337.362497,129.505439 C338.06823,129.056336 338.61356,128.511006 338.998505,127.869431 L341.644989,123.250113 C341.869541,122.833089 341.981815,122.44815 341.981815,122.095284 C341.981815,121.325394 341.548758,120.940455 340.682632,120.940455 C340.041056,120.940455 339.367413,121.165002 338.66168,121.614105 C337.955948,122.063208 337.410617,122.608538 337.025672,123.250113 Z" id="path-2"></path>
        <linearGradient x1="50%" y1="0%" x2="50%" y2="100%" id="linearGradient-3">
            <stop stop-color="#F5515F" offset="0%"></stop>
            <stop stop-color="#9F041B" offset="100%"></stop>
        </linearGradient>
    </defs>
    <g id="Page-1" stroke="none" stroke-width="1" fill="none" fill-rule="evenodd">
        <g id="Desktop-HD" transform="translate(-343.000000, -340.000000)">
            <g id="Group" transform="translate(342.000000, 340.000000)">
                <text id="SHOT-THE-DAMAGED-BOX" font-family="ProximaNova-Regular, Proxima Nova" font-size="38.42" font-weight="normal" letter-spacing="11.4899998" fill="#FFFFFF">
                    <tspan x="0.531652403" y="287">SHOT THE DAMAGED BOXE</tspan>
                    <tspan x="723.954228" y="287">S</tspan>
                </text>
                <path d="M56.6636758,38.30795 L129.417926,38.30795 C131.36671,38.30795 132.341088,39.1740633 132.341088,40.9063161 C132.341088,41.7002652 132.088472,42.5663786 131.583231,43.5046821 L104.516918,90.2752716 C103.722969,91.7188156 102.514019,92.9458095 100.890032,93.9562902 C99.2660449,94.966771 97.7683905,95.4720038 96.3970238,95.4720038 L23.6427735,95.4720038 C21.621812,95.4720038 20.6113464,94.6058904 20.6113464,92.8736377 C20.6113464,92.0796885 20.8639628,91.2135752 21.3692032,90.2752716 L33.3866463,69.488343 C34.2527726,68.044799 35.4797666,66.8178051 37.0676649,65.8073244 C38.6555632,64.7968436 40.1712616,64.2916108 41.6148055,64.2916108 L77.9919307,64.2916108 C79.4354746,64.2916108 80.951173,63.786378 82.5390714,62.7758973 C84.1269697,61.7654165 85.3539636,60.5384226 86.22009,59.0948786 L92.1746789,48.7014143 C92.6799193,47.7631108 92.9325357,46.8969974 92.9325357,46.1030482 C92.9325357,44.3707955 91.9581581,43.5046821 90.0093738,43.5046821 C88.5658299,43.5046821 87.0501315,44.0099149 85.4622332,45.0203957 C83.8743349,46.0308764 82.6473409,47.2578704 81.7812146,48.7014143 L78.7497875,53.8981465 C77.9558383,55.3416904 76.7468884,56.5686843 75.1229015,57.5791651 C73.4989146,58.5896458 72.0012602,59.0948786 70.6298935,59.0948786 L44.6462326,59.0948786 C42.6252711,59.0948786 41.6148055,58.2287653 41.6148055,56.4965126 C41.6148055,55.7025634 41.8674219,54.83645 42.3726623,53.8981465 L48.4355165,43.5046821 C49.2294657,42.0611382 50.4384156,40.8341443 52.0624025,39.8236635 C53.6863894,38.8131828 55.2201318,38.30795 56.6636758,38.30795 Z M71.1712197,85.0785395 L77.2340739,74.6850751 C77.7393143,73.7467716 77.9919307,72.8806582 77.9919307,72.0867091 C77.9919307,70.3544563 76.9814651,69.488343 74.9605036,69.488343 C73.5169597,69.488343 72.0012613,69.9935758 70.413363,71.0040565 C68.8254646,72.0145373 67.6345588,73.2415312 66.8406096,74.6850751 L60.7777554,85.0785395 C60.272515,86.016843 60.0198986,86.8829564 60.0198986,87.6769055 C60.0198986,89.4091583 60.9942762,90.2752716 62.9430605,90.2752716 C64.3866044,90.2752716 65.9203468,89.7700388 67.5443337,88.7595581 C69.1683207,87.7490773 70.3772706,86.5220834 71.1712197,85.0785395 Z M177.162903,38.30795 L124.004663,130.549946 C122.922005,132.426553 121.767188,133.364842 120.540175,133.364842 C119.890581,133.364842 119.34926,133.003962 118.916197,132.28219 L104.625183,107.922508 C104.19212,107.200736 103.975592,106.298535 103.975592,105.215877 C103.975592,103.122738 104.516912,101.173983 105.59957,99.3695529 L155.834648,12.3242892 C156.628597,10.8807452 157.837547,9.65375129 159.461534,8.64327053 C161.085521,7.63278978 162.619263,7.12755699 164.062807,7.12755699 L190.046468,7.12755699 C191.995252,7.12755699 192.96963,7.99367035 192.96963,9.72592307 C192.96963,10.5198722 192.717013,11.3859856 192.211773,12.3242892 L186.148919,22.7177535 C185.643679,23.656057 185.391062,24.5221704 185.391062,25.3161196 C185.391062,27.0483723 186.401528,27.9144856 188.422489,27.9144856 C191.020868,27.9144856 192.320038,28.5279826 192.320038,29.754995 C192.320038,30.8376529 191.381749,31.7037663 189.505142,32.353361 C187.989421,32.8586014 186.618074,33.1112178 185.391062,33.1112178 C183.947518,33.1112178 182.43182,33.6164506 180.843921,34.6269314 C179.256023,35.6374121 178.029029,36.864406 177.162903,38.30795 Z M225.449206,38.30795 L172.290966,130.549946 C171.208309,132.426553 170.053491,133.364842 168.826478,133.364842 C168.176884,133.364842 167.635563,133.003962 167.2025,132.28219 L152.911486,107.922508 C152.478423,107.200736 152.261895,106.298535 152.261895,105.215877 C152.261895,103.122738 152.803215,101.173983 153.885873,99.3695529 L204.120951,12.3242892 C204.9149,10.8807452 206.12385,9.65375129 207.747837,8.64327053 C209.371824,7.63278978 210.905566,7.12755699 212.34911,7.12755699 L238.332771,7.12755699 C240.281555,7.12755699 241.255933,7.99367035 241.255933,9.72592307 C241.255933,10.5198722 241.003316,11.3859856 240.498076,12.3242892 L234.435222,22.7177535 C233.929982,23.656057 233.677365,24.5221704 233.677365,25.3161196 C233.677365,27.0483723 234.687831,27.9144856 236.708792,27.9144856 C239.307171,27.9144856 240.606341,28.5279826 240.606341,29.754995 C240.606341,30.8376529 239.668052,31.7037663 237.791445,32.353361 C236.275724,32.8586014 234.904377,33.1112178 233.677365,33.1112178 C232.233821,33.1112178 230.718123,33.6164506 229.130225,34.6269314 C227.542326,35.6374121 226.315332,36.864406 225.449206,38.30795 Z M243.637768,38.30795 L316.392019,38.30795 C318.340803,38.30795 319.315181,39.1740633 319.315181,40.9063161 C319.315181,41.7002652 319.062564,42.5663786 318.557324,43.5046821 L291.49101,90.2752716 C290.697061,91.7188156 289.488111,92.9458095 287.864125,93.9562902 C286.240138,94.966771 284.742483,95.4720038 283.371116,95.4720038 L210.616866,95.4720038 C208.595905,95.4720038 207.585439,94.6058904 207.585439,92.8736377 C207.585439,92.0796885 207.838055,91.2135752 208.343296,90.2752716 L220.360739,69.488343 C221.226865,68.044799 222.453859,66.8178051 224.041758,65.8073244 C225.629656,64.7968436 227.145354,64.2916108 228.588898,64.2916108 L264.966023,64.2916108 C266.409567,64.2916108 267.925266,63.786378 269.513164,62.7758973 C271.101062,61.7654165 272.328056,60.5384226 273.194183,59.0948786 L279.148772,48.7014143 C279.654012,47.7631108 279.906628,46.8969974 279.906628,46.1030482 C279.906628,44.3707955 278.932251,43.5046821 276.983467,43.5046821 C275.539923,43.5046821 274.024224,44.0099149 272.436326,45.0203957 C270.848428,46.0308764 269.621434,47.2578704 268.755307,48.7014143 L265.72388,53.8981465 C264.929931,55.3416904 263.720981,56.5686843 262.096994,57.5791651 C260.473007,58.5896458 258.975353,59.0948786 257.603986,59.0948786 L231.620325,59.0948786 C229.599364,59.0948786 228.588898,58.2287653 228.588898,56.4965126 C228.588898,55.7025634 228.841515,54.83645 229.346755,53.8981465 L235.409609,43.5046821 C236.203558,42.0611382 237.412508,40.8341443 239.036495,39.8236635 C240.660482,38.8131828 242.194225,38.30795 243.637768,38.30795 Z M258.145312,85.0785395 L264.208167,74.6850751 C264.713407,73.7467716 264.966023,72.8806582 264.966023,72.0867091 C264.966023,70.3544563 263.955558,69.488343 261.934596,69.488343 C260.491052,69.488343 258.975354,69.9935758 257.387456,71.0040565 C255.799557,72.0145373 254.608651,73.2415312 253.814702,74.6850751 L247.751848,85.0785395 C247.246608,86.016843 246.993991,86.8829564 246.993991,87.6769055 C246.993991,89.4091583 247.968369,90.2752716 249.917153,90.2752716 C251.360697,90.2752716 252.89444,89.7700388 254.518426,88.7595581 C256.142413,87.7490773 257.351363,86.5220834 258.145312,85.0785395 Z M392.069431,59.0948786 L366.08577,59.0948786 C364.064809,59.0948786 363.054343,58.2287653 363.054343,56.4965126 C363.054343,55.7025634 363.306959,54.83645 363.8122,53.8981465 L366.843627,48.7014143 C367.348867,47.7631108 367.601484,46.8969974 367.601484,46.1030482 C367.601484,44.3707955 366.627106,43.5046821 364.678322,43.5046821 C363.234778,43.5046821 361.719079,44.0099149 360.131181,45.0203957 C358.543283,46.0308764 357.316289,47.2578704 356.450163,48.7014143 L335.446703,85.0785395 C334.941463,86.016843 334.688847,86.8829564 334.688847,87.6769055 C334.688847,89.4091583 335.663224,90.2752716 337.612008,90.2752716 C339.055552,90.2752716 340.589295,89.7700388 342.213282,88.7595581 C343.837269,87.7490773 345.046219,86.5220834 345.840168,85.0785395 L354.826184,69.488343 C355.69231,68.044799 356.919304,66.8178051 358.507202,65.8073244 C360.095101,64.7968436 361.610799,64.2916108 363.054343,64.2916108 L389.038004,64.2916108 C391.058965,64.2916108 392.069431,65.1577242 392.069431,66.8899769 C392.069431,67.683926 391.780726,68.5500394 391.203309,69.488343 L379.185866,90.2752716 C378.391917,91.7188156 377.182967,92.9458095 375.55898,93.9562902 C373.934993,94.966771 372.437339,95.4720038 371.065972,95.4720038 L298.311721,95.4720038 C296.29076,95.4720038 295.280294,94.6058904 295.280294,92.8736377 C295.280294,92.0796885 295.532911,91.2135752 296.038151,90.2752716 L323.104464,43.5046821 C323.898414,42.0611382 325.107364,40.8341443 326.73135,39.8236635 C328.355337,38.8131828 329.88908,38.30795 331.332624,38.30795 L404.086874,38.30795 C406.035658,38.30795 407.010036,39.1740633 407.010036,40.9063161 C407.010036,41.7002652 406.75742,42.5663786 406.252179,43.5046821 L400.189325,53.8981465 C399.395376,55.3416904 398.186426,56.5686843 396.562439,57.5791651 C394.938452,58.5896458 393.440798,59.0948786 392.069431,59.0948786 Z M493.405708,43.5046821 L487.342854,53.8981465 C486.548905,55.3416904 485.339955,56.5686843 483.715968,57.5791651 C482.091981,58.5896458 480.594327,59.0948786 479.22296,59.0948786 L457.78644,59.0948786 C455.404592,59.0948786 454.213686,59.8166398 454.213686,61.2601837 C454.213686,61.6210697 454.321951,62.0180383 454.538482,62.4511015 L466.664191,83.0214996 C467.097254,83.7432716 467.313782,84.7176492 467.313782,85.9446615 C467.313782,87.7490914 466.880725,89.409142 466.014599,90.9248631 C465.292827,92.1518755 464.156053,93.2164732 462.604244,94.1186881 C461.052434,95.0209031 459.590868,95.4720038 458.219501,95.4720038 L432.23584,95.4720038 C430.214878,95.4720038 429.204413,94.6058904 429.204413,92.8736377 C429.204413,92.0796885 429.457029,91.2135752 429.96227,90.2752716 L445.01114,64.2916108 C445.51638,63.3533072 445.768997,62.4871939 445.768997,61.6932447 C445.768997,59.960992 444.794619,59.0948786 442.845835,59.0948786 C441.402291,59.0948786 439.868548,59.6001114 438.244562,60.6105922 C436.620575,61.6210729 435.411625,62.8480669 434.617676,64.2916108 L419.568805,90.2752716 C418.774856,91.7188156 417.565906,92.9458095 415.941919,93.9562902 C414.317932,94.966771 412.820278,95.4720038 411.448911,95.4720038 L385.46525,95.4720038 C383.444289,95.4720038 382.433823,94.6058904 382.433823,92.8736377 C382.433823,92.0796885 382.68644,91.2135752 383.19168,90.2752716 L433.535023,3.23000786 C434.617681,1.35340075 435.736411,0.415111273 436.891246,0.415111273 C437.540841,0.415111273 438.082161,0.739903785 438.515225,1.38949855 L452.914503,25.8574458 C453.347567,26.5792178 453.564095,27.5535953 453.564095,28.7806077 C453.564095,30.5850376 453.131038,32.2450882 452.264912,33.7608093 L443.603692,48.7014143 C443.098451,49.6397179 442.845835,50.5058312 442.845835,51.2997804 C442.845835,53.0320331 443.820212,53.8981465 445.768997,53.8981465 C447.212541,53.8981465 448.746283,53.3929137 450.37027,52.3824329 C451.994257,51.3719522 453.203207,50.1449582 453.997156,48.7014143 L457.028583,43.5046821 C457.822532,42.0611382 459.031482,40.8341443 460.655469,39.8236635 C462.279456,38.8131828 463.813198,38.30795 465.256742,38.30795 L491.240403,38.30795 C493.189187,38.30795 494.163565,39.1740633 494.163565,40.9063161 C494.163565,41.7002652 493.910949,42.5663786 493.405708,43.5046821 Z" id="Attack" fill="#FFFFFF"></path>
                <g id="of">
                    <use fill="#000000" xlink:href="#path-1"></use>
                    <use fill="#FFFFFF" xlink:href="#path-1"></use>
                </g>
                <g id="the">
                    <use fill="#000000" xlink:href="#path-2"></use>
                    <use fill="#FFFFFF" xlink:href="#path-2"></use>
                </g>
                <path d="M149.248712,117.267813 L168.44775,149.891743 C169.025168,150.854105 169.313872,152.153275 169.313872,153.789292 C169.313872,156.195198 168.736463,158.408599 167.581628,160.429561 L124.131173,235.782177 C122.976338,237.706902 121.340346,239.342894 119.223148,240.690202 C117.105951,242.037509 115.085019,242.711153 113.160294,242.711153 L16.1546271,242.711153 C13.4600118,242.711153 12.1127243,241.556335 12.1127243,239.246665 C12.1127243,238.188066 12.4976636,237.033248 13.2675537,235.782177 L49.2116179,173.421391 C50.366453,171.496666 52.0024449,169.860674 54.1196427,168.513366 C56.2368404,167.166058 58.2577716,166.492415 60.1824969,166.492415 L108.68533,166.492415 C110.610056,166.492415 112.630987,165.818771 114.748185,164.471463 C116.865382,163.124156 118.501374,161.488164 119.656209,159.563439 L142.608443,119.721825 C144.051987,117.219682 145.591744,115.96863 147.227761,115.96863 C148.093887,115.96863 148.767531,116.401686 149.248712,117.267813 Z M79.6702425,228.853201 L107.530501,180.350367 C108.300391,179.099296 108.68533,177.944478 108.68533,176.885879 C108.68533,174.576209 107.338043,173.421391 104.643428,173.421391 C102.718702,173.421391 100.697771,174.095035 98.5805734,175.442342 C96.4633757,176.78965 94.8273837,178.425642 93.6725486,180.350367 L65.8122901,228.853201 C65.0424,230.104272 64.6574607,231.25909 64.6574607,232.317689 C64.6574607,234.627359 66.0047481,235.782177 68.6993635,235.782177 C70.6240887,235.782177 72.6450199,235.108533 74.7622177,233.761226 C76.8794154,232.413918 78.5154073,230.777926 79.6702425,228.853201 Z M179.562983,166.492415 L276.56865,166.492415 C279.167029,166.492415 280.466199,167.647233 280.466199,169.956903 C280.466199,171.015502 280.129377,172.17032 279.455724,173.421391 L271.371918,187.279343 C270.313319,189.204069 268.701386,190.840061 266.53607,192.187368 C264.370754,193.534676 262.373882,194.20832 260.545393,194.20832 L225.900511,194.20832 C223.205896,194.20832 221.858609,193.053502 221.858609,190.743832 C221.858609,189.685233 222.195431,188.530415 222.869084,187.279343 L226.910987,180.350367 C227.584641,179.099296 227.921463,177.944478 227.921463,176.885879 C227.921463,174.576209 226.622293,173.421391 224.023914,173.421391 C222.099189,173.421391 220.078257,174.095035 217.96106,175.442342 C215.843862,176.78965 214.20787,178.425642 213.053035,180.350367 L181.00652,235.782177 C179.947921,237.706902 178.335988,239.342894 176.170672,240.690202 C174.005356,242.037509 172.008483,242.711153 170.179994,242.711153 L135.535113,242.711153 C132.840498,242.711153 131.49321,241.556335 131.49321,239.246665 C131.49321,238.188066 131.830032,237.033248 132.503686,235.782177 L168.592104,173.421391 C169.650703,171.496666 171.262636,169.860674 173.427952,168.513366 C175.593268,167.166058 177.638258,166.492415 179.562983,166.492415 Z M295.767688,166.492415 L392.773355,166.492415 C395.371735,166.492415 396.670905,167.647233 396.670905,169.956903 C396.670905,171.015502 396.334083,172.17032 395.660429,173.421391 L359.572011,235.782177 C358.513412,237.706902 356.901479,239.342894 354.736163,240.690202 C352.570847,242.037509 350.573975,242.711153 348.745486,242.711153 L251.739819,242.711153 C249.045203,242.711153 247.697916,241.556335 247.697916,239.246665 C247.697916,238.188066 248.034738,237.033248 248.708392,235.782177 L284.796809,173.421391 C285.855408,171.496666 287.467341,169.860674 289.632657,168.513366 C291.797973,167.166058 293.842963,166.492415 295.767688,166.492415 Z M315.11108,228.853201 L343.115693,180.350367 C343.789346,179.099296 344.126168,177.944478 344.126168,176.885879 C344.126168,174.576209 342.826998,173.421391 340.228619,173.421391 C338.303894,173.421391 336.282963,174.095035 334.165765,175.442342 C332.048567,176.78965 330.412575,178.425642 329.25774,180.350367 L301.253128,228.853201 C300.579474,230.104272 300.242652,231.25909 300.242652,232.317689 C300.242652,234.627359 301.541822,235.782177 304.140201,235.782177 C306.064927,235.782177 308.109916,235.108533 310.275232,233.761226 C312.440548,232.413918 314.052481,230.777926 315.11108,228.853201 Z M414.137699,166.492415 L511.143366,166.492415 C513.741745,166.492415 515.040915,167.647233 515.040915,169.956903 C515.040915,171.015502 514.704093,172.17032 514.030439,173.421391 L477.942021,235.782177 C476.883423,237.706902 475.271489,239.342894 473.106173,240.690202 C470.940858,242.037509 468.943985,242.711153 467.115496,242.711153 L432.470615,242.711153 C429.776,242.711153 428.428712,241.556335 428.428712,239.246665 C428.428712,238.188066 428.765534,237.033248 429.439188,235.782177 L461.485703,180.350367 C462.159357,179.099296 462.496179,177.944478 462.496179,176.885879 C462.496179,174.576209 461.197009,173.421391 458.59863,173.421391 C456.673904,173.421391 454.652973,174.095035 452.535775,175.442342 C450.418578,176.78965 448.782586,178.425642 447.627751,180.350367 L415.581236,235.782177 C414.522637,237.706902 412.910703,239.342894 410.745388,240.690202 C408.580072,242.037509 406.583199,242.711153 404.75471,242.711153 L370.109829,242.711153 C367.415214,242.711153 366.067926,241.556335 366.067926,239.246665 C366.067926,238.188066 366.404748,237.033248 367.078402,235.782177 L403.16682,173.421391 C404.225419,171.496666 405.837352,169.860674 408.002668,168.513366 C410.167984,167.166058 412.212974,166.492415 414.137699,166.492415 Z M556.90348,208.066272 C554.978754,208.066272 552.957823,208.739916 550.840625,210.087223 C548.723428,211.434531 547.135553,213.070523 546.076954,214.995248 L537.993149,228.853201 C537.319495,230.104272 536.982673,231.25909 536.982673,232.317689 C536.982673,234.627359 538.281843,235.782177 540.880222,235.782177 C542.804947,235.782177 544.849937,235.108533 547.015253,233.761226 C549.180569,232.413918 550.792502,230.777926 551.851101,228.853201 L555.893004,221.924225 C556.951603,219.999499 558.563536,218.363507 560.728852,217.0162 C562.894168,215.668892 564.939158,214.995248 566.863883,214.995248 L601.508764,214.995248 C604.107143,214.995248 605.406313,216.150066 605.406313,218.459736 C605.406313,219.518335 605.069491,220.673153 604.395838,221.924225 L596.312032,235.782177 C595.253433,237.706902 593.6415,239.342894 591.476184,240.690202 C589.310868,242.037509 587.313996,242.711153 585.485507,242.711153 L488.479839,242.711153 C485.785224,242.711153 484.437937,241.556335 484.437937,239.246665 C484.437937,238.188066 484.774759,237.033248 485.448412,235.782177 L521.53683,173.421391 C522.595429,171.496666 524.207362,169.860674 526.372678,168.513366 C528.537994,167.166058 530.582984,166.492415 532.507709,166.492415 L629.513376,166.492415 C632.111755,166.492415 633.410925,167.647233 633.410925,169.956903 C633.410925,171.015502 633.074104,172.17032 632.40045,173.421391 L616.377192,201.137296 C615.318593,203.062021 613.70666,204.698013 611.541344,206.045321 C609.376028,207.392628 607.331038,208.066272 605.406313,208.066272 L556.90348,208.066272 Z M565.997761,180.350367 L558.058309,194.20832 C557.288419,195.459391 556.90348,196.614209 556.90348,197.672808 C556.90348,199.982478 558.250767,201.137296 560.945382,201.137296 C562.870108,201.137296 564.891039,200.463652 567.008237,199.116344 C569.125434,197.769037 570.761426,196.133045 571.916261,194.20832 L579.855713,180.350367 C580.529367,179.099296 580.866189,177.944478 580.866189,176.885879 C580.866189,174.576209 579.567019,173.421391 576.96864,173.421391 C575.043915,173.421391 573.022984,174.095035 570.905786,175.442342 C568.788588,176.78965 567.152596,178.425642 565.997761,180.350367 Z M732.581898,194.20832 L697.937016,194.20832 C695.242401,194.20832 693.895114,193.053502 693.895114,190.743832 C693.895114,189.685233 694.231936,188.530415 694.905589,187.279343 L698.947492,180.350367 C699.621146,179.099296 699.957968,177.944478 699.957968,176.885879 C699.957968,174.576209 698.658798,173.421391 696.060419,173.421391 C694.135694,173.421391 692.114762,174.095035 689.997565,175.442342 C687.880367,176.78965 686.244375,178.425642 685.08954,180.350367 L677.150088,194.20832 C676.380198,195.459391 675.995258,196.614209 675.995258,197.672808 C675.995258,199.982478 677.342546,201.137296 680.037161,201.137296 L728.539995,201.137296 C731.23461,201.137296 732.581898,202.292114 732.581898,204.601784 C732.581898,205.660383 732.196958,206.815201 731.427068,208.066272 L715.403811,235.782177 C714.345212,237.706902 712.733279,239.342894 710.567963,240.690202 C708.402647,242.037509 706.405774,242.711153 704.577285,242.711153 L607.571618,242.711153 C604.877003,242.711153 603.529715,241.556335 603.529715,239.246665 C603.529715,238.188066 603.866537,237.033248 604.540191,235.782177 L612.623997,221.924225 C613.682596,219.999499 615.294529,218.363507 617.459845,217.0162 C619.625161,215.668892 621.670151,214.995248 623.594876,214.995248 L658.239757,214.995248 C660.838136,214.995248 662.137306,216.150066 662.137306,218.459736 C662.137306,219.518335 661.800484,220.673153 661.12683,221.924225 L657.084928,228.853201 C656.411274,230.104272 656.074452,231.25909 656.074452,232.317689 C656.074452,234.627359 657.373622,235.782177 659.972001,235.782177 C661.896726,235.782177 663.941716,235.108533 666.107032,233.761226 C668.272348,232.413918 669.884281,230.777926 670.94288,228.853201 L679.026686,214.995248 C679.700339,213.744177 680.037161,212.589359 680.037161,211.53076 C680.037161,209.22109 678.689874,208.066272 675.995258,208.066272 L627.492425,208.066272 C624.894046,208.066272 623.594876,206.911454 623.594876,204.601784 C623.594876,203.543185 623.931698,202.388367 624.605351,201.137296 L640.628609,173.421391 C641.687208,171.496666 643.299141,169.860674 645.464457,168.513366 C647.629773,167.166058 649.674763,166.492415 651.599488,166.492415 L748.605155,166.492415 C751.203534,166.492415 752.502704,167.647233 752.502704,169.956903 C752.502704,171.015502 752.165882,172.17032 751.492229,173.421391 L743.408423,187.279343 C742.349824,189.204069 740.737891,190.840061 738.572575,192.187368 C736.407259,193.534676 734.410387,194.20832 732.581898,194.20832 Z" id="Drones" stroke="#FFFFFF" stroke-width="3.74400015" fill="url(#linearGradient-3)" stroke-linecap="round" stroke-linejoin="round"></path>
            </g>
        </g>
    </g>
</svg>