<?xml version="1.0" encoding="utf-8"?>
<!-- Generator: Adobe Illustrator 22.0.1, SVG Export Plug-In . SVG Version: 6.00 Build 0)  -->
<svg version="1.1" id="Capa_1" xmlns="http://www.w3.org/2000/svg" xmlns:xlink="http://www.w3.org/1999/xlink" x="0px" y="0px"
	 viewBox="0 0 512 512" style="enable-background:new 0 0 512 512;" xml:space="preserve">
<style type="text/css">
	.st0{fill:#E30020;}
</style>
<g>
	<path class="st0" d="M271,55.6c-4.9-0.4-9.9-0.6-15-0.6s-10.1,0.2-15,0.6C137.1,63.3,55,150.2,55,256s82.1,192.7,186,200.4
		c4.9,0.4,9.9,0.6,15,0.6s10.1-0.2,15-0.6c103.9-7.7,186-94.6,186-200.4S374.9,63.3,271,55.6z M271,426.3c-4.9,0.4-9.9,0.6-15,0.6
		s-10.1-0.2-15-0.6C153.7,418.7,85,345.2,85,256S153.7,93.3,241,85.7c4.9-0.4,9.9-0.7,15-0.7s10.1,0.2,15,0.7
		c87.3,7.6,156,81.1,156,170.3S358.3,418.7,271,426.3z"/>
	<path class="st0" d="M271,127.9c-4.9-0.6-9.9-0.9-15-0.9s-10.1,0.3-15,0.9c-64.1,7.4-114,62.1-114,128.1s49.9,120.7,114,128.1
		c4.9,0.6,9.9,0.9,15,0.9s10.1-0.3,15-0.9c64.1-7.4,114-62.1,114-128.1S335.1,135.3,271,127.9z M256,355c-54.6,0-99-44.4-99-99
		s44.4-99,99-99s99,44.4,99,99S310.6,355,256,355z"/>
	<path class="st0" d="M305.3,256c0,27.2-22.1,49.3-49.3,49.3s-49.3-22.1-49.3-49.3s22.1-49.3,49.3-49.3S305.3,228.8,305.3,256z"/>
	<path class="st0" d="M241,0h30v150.2h-30V0z"/>
	<path class="st0" d="M241,361.8h30V512h-30V361.8z"/>
	<path class="st0" d="M0,241h150.2v30H0V241z"/>
	<path class="st0" d="M361.8,241H512v30H361.8V241z"/>
</g>
</svg>
